<?xml version="1.0" encoding="iso-8859-1"?>
<!-- Generator: Adobe Illustrator 19.0.0, SVG Export Plug-In . SVG Version: 6.00 Build 0)  -->
<svg xmlns="http://www.w3.org/2000/svg" xmlns:xlink="http://www.w3.org/1999/xlink" version="1.1" id="Layer_1" x="0px" y="0px" viewBox="0 0 512 512" style="enable-background:new 0 0 512 512;" xml:space="preserve">
<path style="fill:#FFF082;" d="M271.499,367.165h-30.998c0,0-7.749,17.102-7.749,51.307c0,0,0,51.307,23.248,85.511  c23.248-34.205,23.248-85.511,23.248-85.511C279.248,384.267,271.499,367.165,271.499,367.165z"/>
<path style="fill:#FFFFFF;" d="M262.413,367.165h-12.827c0,0-3.207,10.066-3.207,30.196c0,0,0,30.196,9.62,50.327  c9.62-20.13,9.62-50.327,9.62-50.327C265.62,377.231,262.413,367.165,262.413,367.165z"/>
<polygon style="fill:#707487;" points="273.102,342.936 238.897,342.936 230.346,384.267 281.653,384.267 "/>
<g>
	<polygon style="fill:#FF6991;" points="213.244,187.591 144.835,341.511 170.488,367.165 238.897,307.307  "/>
	<polygon style="fill:#FF6991;" points="298.756,187.591 367.165,341.511 341.511,367.165 273.102,307.307  "/>
</g>
<polygon style="fill:#FF507D;" points="189.257,241.564 195.365,345.398 238.897,307.307 213.244,187.591 "/>
<path style="fill:#E4EAF8;" d="M282.942,350.063c4.193,0,7.762-3.01,8.436-7.15c5.025-30.897,24.48-153.397,24.48-198.078  c0-47.134-37.114-104.872-52.893-127.289c-3.396-4.825-10.533-4.825-13.929,0c-15.78,22.417-52.894,80.155-52.894,127.289  c0,44.681,19.455,167.18,24.48,198.078c0.673,4.14,4.242,7.15,8.436,7.15H282.942z"/>
<path style="fill:#D5DCED;" d="M257.278,350.063c-3.295,0-6.099-3.01-6.628-7.15c-3.949-30.899-19.235-153.398-19.235-198.078  c0-42.236,23.368-92.867,37.155-119.089c-2.058-3.074-3.951-5.821-5.611-8.181c-3.4-4.836-10.532-4.838-13.934-0.004  c-15.785,22.429-52.884,80.151-52.884,127.274c0,44.68,19.455,167.18,24.48,198.078c0.673,4.14,4.242,7.15,8.436,7.15H257.278z"/>
<path style="fill:#FF6991;" d="M249.033,17.577c-10.249,14.601-29.492,44.132-41.717,75.951h97.367  c-12.224-31.82-31.468-61.351-41.717-75.951C259.575,12.745,252.424,12.745,249.033,17.577z"/>
<path style="fill:#FF507D;" d="M249.025,17.588c-10.251,14.604-29.488,44.129-41.708,75.941h32.833  c8.058-26.697,20-51.767,28.408-67.759c-2.05-3.073-3.937-5.816-5.59-8.174C259.57,12.751,252.424,12.744,249.025,17.588z"/>
<circle style="fill:#00C3FF;" cx="256" cy="153.386" r="25.653"/>
<path style="fill:#AFB9D2;" d="M216.321,315.858c1.81,11.624,3.327,21.071,4.3,27.055c0.673,4.14,4.242,7.15,8.436,7.15h53.884  c4.193,0,7.762-3.01,8.436-7.15c0.974-5.984,2.492-15.431,4.3-27.055H216.321z"/>
<path style="fill:#959CB5;" d="M250.65,342.913c-0.764-5.984-1.957-15.431-3.379-27.055h-30.95c0,0,4.092,25.769,4.3,27.055  c0.673,4.14,4.242,7.15,8.436,7.15h28.22C253.983,350.063,251.179,347.052,250.65,342.913z"/>
<path d="M281.653,410.455c-4.427,0-8.017,3.589-8.017,8.017c0,0.438-0.224,39.832-17.635,70.814  c-17.349-30.919-17.639-70.381-17.639-70.814c0-4.427-3.589-8.017-8.017-8.017s-8.017,3.589-8.017,8.017  c0,2.204,0.31,54.393,27.257,90.322c1.515,2.019,3.89,3.207,6.413,3.207c2.524,0,4.899-1.188,6.413-3.207  c26.947-35.929,27.257-88.117,27.257-90.322C289.67,414.044,286.081,410.455,281.653,410.455z"/>
<path d="M374.456,338.179L318.045,214.78c3.384-27.979,5.83-53.785,5.83-69.945c0-26.212-10.413-58.099-30.951-94.773  c-15.086-26.939-29.97-46.162-30.596-46.966C260.809,1.142,258.473,0,256,0s-4.809,1.142-6.328,3.096  c-0.626,0.805-15.51,20.027-30.596,46.967c-20.538,36.674-30.951,68.56-30.951,94.772c0,16.161,2.446,41.966,5.83,69.945  l-56.411,123.398c-1.392,3.045-0.745,6.635,1.623,9.001l25.653,25.653c1.562,1.562,3.614,2.348,5.669,2.348  c1.935,0,3.873-0.696,5.406-2.098l36.138-33.023c1.027,6.348,1.698,10.391,1.853,11.321c0.645,3.866,3.988,6.699,7.908,6.699h6.835  l-6.061,24.244c-0.6,2.395-0.061,4.932,1.458,6.878c1.519,1.946,3.85,3.084,6.319,3.084h51.307c2.469,0,4.799-1.137,6.319-3.084  c1.519-1.945,2.058-4.482,1.458-6.878l-6.061-24.244h6.835c3.92,0,7.263-2.833,7.908-6.699c0.155-0.93,0.826-4.971,1.853-11.321  l36.138,33.023c1.535,1.402,3.472,2.098,5.406,2.098c2.055,0,4.108-0.786,5.669-2.348l25.653-25.653  C375.201,344.812,375.848,341.223,374.456,338.179z M256,21.609c8.761,12.43,24.836,36.817,36.774,63.903h-73.548  C231.164,58.426,247.239,34.039,256,21.609z M170.737,356.077L154.44,339.78l43.381-94.897c3.817,28.267,8.032,56.075,11.192,76.217  L170.737,356.077z M271.385,376.251h-30.771l4.543-18.171h21.687L271.385,376.251z M228.605,342.046  c-0.701-4.314-1.704-10.545-2.906-18.171h38.852c4.427,0,8.017-3.589,8.017-8.017c0-4.427-3.589-8.017-8.017-8.017H223.2  c-7.568-49.178-19.041-129.289-19.041-163.006c0-13.781,3.45-28.66,8.659-43.29h86.366c5.209,14.63,8.659,29.509,8.659,43.29  c0,44.018-19.553,167.104-24.447,197.211H228.605z M341.262,356.077L302.985,321.1c3.161-20.141,7.375-47.951,11.192-76.217  l43.381,94.897L341.262,356.077z"/>
<path d="M281.653,145.37c-4.427,0-8.017,3.589-8.017,8.017c0,9.725-7.912,17.637-17.637,17.637c-9.725,0-17.637-7.912-17.637-17.637  c0-9.725,7.912-17.637,17.637-17.637c4.427,0,8.017-3.589,8.017-8.017c0-4.427-3.589-8.017-8.017-8.017  c-18.566,0-33.67,15.105-33.67,33.67s15.105,33.67,33.67,33.67s33.67-15.105,33.67-33.67  C289.67,148.959,286.081,145.37,281.653,145.37z"/>
<g>
</g>
<g>
</g>
<g>
</g>
<g>
</g>
<g>
</g>
<g>
</g>
<g>
</g>
<g>
</g>
<g>
</g>
<g>
</g>
<g>
</g>
<g>
</g>
<g>
</g>
<g>
</g>
<g>
</g>
</svg>
